<svg width="224" height="224" viewBox="0 0 224 224" fill="none" xmlns="http://www.w3.org/2000/svg">
<circle cx="111.952" cy="112.033" r="110" transform="rotate(-0.916523 111.952 112.033)" fill="#000002"/>
<g filter="url(#filter0_d_4_4)">
<circle cx="112" cy="112" r="100" stroke="#F9F9F9" stroke-width="3" stroke-dasharray="6 6" shape-rendering="crispEdges"/>
</g>
<path d="M35.8766 101L36.0366 100.4L39.0766 99.28L43.1166 76.32L40.3966 75.2L40.5166 74.6H49.4766L49.3566 75.2L45.8766 76.32L41.8366 99.44H51.3166L54.5966 92.44H55.2766L53.7966 101H35.8766ZM71.3609 101.36C69.2276 101.36 67.4676 100.827 66.0809 99.76C64.7209 98.6933 64.0409 97 64.0409 94.68C64.0409 93.9333 64.1209 93.1467 64.2809 92.32L66.4409 80.28L63.9609 79.2L64.0809 78.6H71.9609L71.8409 79.2L69.0009 80.28L66.9209 91.8C66.7609 92.76 66.6809 93.6133 66.6809 94.36C66.6809 96.3067 67.1609 97.6933 68.1209 98.52C69.1076 99.3467 70.3743 99.76 71.9209 99.76C73.8676 99.76 75.4543 99.1733 76.6809 98C77.9343 96.8 78.7476 95.1333 79.1209 93L81.4009 80.32L78.4009 79.2L78.5209 78.6H85.9609L85.8409 79.2L83.1209 80.32L80.9609 92.32C80.3743 95.4933 79.2543 97.8 77.6009 99.24C75.9476 100.653 73.8676 101.36 71.3609 101.36ZM88.4703 101L88.5903 100.4L91.3103 99.28L94.7903 80.32L92.1903 79.2L92.3103 78.6H97.1503L106.51 96.32L109.35 80.28L106.35 79.2L106.47 78.6H113.75L113.63 79.2L110.99 80.28L107.27 101.16H106.27L96.0703 82.08L92.9903 99.24L95.8703 100.4L95.7503 101H88.4703ZM116.486 101L116.606 100.4L119.126 99.28L122.526 80.32L120.166 79.2L120.286 78.6H127.766L127.646 79.2L125.046 80.32L121.686 99.28L124.086 100.4L123.966 101H116.486ZM135.316 101L135.436 100.4L138.996 99.28L142.516 80.08H136.356L133.756 85.04H133.156L134.356 78.6H153.676L152.556 85.04H151.916L151.196 80.08H145.076L141.556 99.28L144.756 100.4L144.636 101H135.316ZM152.494 101L152.614 100.4L154.494 99.56L166.534 78.4H167.774L172.014 99.52L173.934 100.4L173.814 101H166.334L166.454 100.4L169.414 99.52L168.054 92.64H160.174L156.334 99.6L159.054 100.4L158.934 101H152.494ZM160.974 91.2H167.774L165.974 82.12L160.974 91.2ZM184.958 101.4C183.651 101.4 182.558 101.267 181.678 101C180.825 100.733 179.958 100.347 179.078 99.84L179.718 94.6H180.398L181.358 98.52C181.811 98.9467 182.385 99.3067 183.078 99.6C183.798 99.8933 184.571 100.04 185.398 100.04C187.078 100.04 188.345 99.6133 189.198 98.76C190.051 97.88 190.478 96.7333 190.478 95.32C190.478 94.4667 190.291 93.76 189.918 93.2C189.545 92.6133 189.025 92.0933 188.358 91.64C187.691 91.16 186.905 90.64 185.998 90.08C184.691 89.28 183.731 88.4933 183.118 87.72C182.505 86.92 182.198 85.92 182.198 84.72C182.198 83.5467 182.505 82.4667 183.118 81.48C183.731 80.4667 184.571 79.6667 185.638 79.08C186.705 78.4667 187.905 78.16 189.238 78.16C190.225 78.16 191.118 78.2933 191.918 78.56C192.745 78.8 193.545 79.1467 194.318 79.6L193.678 84.68H193.038L192.198 80.92C191.851 80.5467 191.398 80.2267 190.838 79.96C190.278 79.6667 189.611 79.52 188.838 79.52C187.611 79.52 186.571 79.8933 185.718 80.64C184.865 81.36 184.438 82.36 184.438 83.64C184.438 84.6533 184.691 85.4933 185.198 86.16C185.705 86.8267 186.651 87.5733 188.038 88.4C189.611 89.3333 190.785 90.24 191.558 91.12C192.358 91.9733 192.758 93.1333 192.758 94.6C192.758 95.88 192.425 97.04 191.758 98.08C191.091 99.0933 190.171 99.9067 188.998 100.52C187.825 101.107 186.478 101.4 184.958 101.4Z" fill="#2B909D"/>
<path d="M56.5496 166.5C54.6163 166.5 52.9663 166.3 51.5996 165.9C50.2329 165.5 48.8163 164.933 47.3496 164.2L46.8496 156.5H47.7496L50.5996 162.85C51.7329 163.683 52.8329 164.25 53.8996 164.55C54.9663 164.817 56.0663 164.95 57.1996 164.95C59.4329 164.95 61.1163 164.367 62.2496 163.2C63.3829 162 63.9496 160.333 63.9496 158.2C63.9496 156.6 63.5663 155.35 62.7996 154.45C62.0663 153.55 60.9996 152.75 59.5996 152.05C58.2329 151.35 56.6163 150.533 54.7496 149.6C53.2829 148.867 52.0496 148.133 51.0496 147.4C50.0829 146.667 49.3496 145.817 48.8496 144.85C48.3496 143.85 48.0996 142.617 48.0996 141.15C48.0996 139.717 48.5329 138.35 49.3996 137.05C50.2996 135.717 51.4496 134.633 52.8496 133.8C54.2496 132.933 55.7496 132.5 57.3496 132.5C58.8163 132.5 60.1496 132.683 61.3496 133.05C62.5829 133.417 63.8496 133.933 65.1496 134.6L65.6496 142.1H64.7496L62.5496 136.15C61.7163 135.383 60.8996 134.833 60.0996 134.5C59.2996 134.167 58.3663 134 57.2996 134C55.2663 134 53.6996 134.583 52.5996 135.75C51.4996 136.917 50.9496 138.333 50.9496 140C50.9496 141.267 51.1996 142.333 51.6996 143.2C52.2329 144.067 53.0329 144.85 54.0996 145.55C55.1663 146.25 56.5163 147 58.1496 147.8C60.1496 148.767 61.7996 149.7 63.0996 150.6C64.3996 151.467 65.3496 152.467 65.9496 153.6C66.5829 154.733 66.8996 156.167 66.8996 157.9C66.8996 159.567 66.3829 161.05 65.3496 162.35C64.3496 163.617 63.0663 164.633 61.4996 165.4C59.9329 166.133 58.2829 166.5 56.5496 166.5ZM80.3809 166V164.75L83.7809 164V140L80.3809 139.25V138H90.1809V139.25L86.4309 140V150.7H102.831V140L99.0809 139.25V138H108.831V139.25L105.481 140V164L108.831 164.75V166H99.0809V164.75L102.831 164V152.35H86.4309V164L90.1809 164.75V166H80.3809ZM136.642 166.5C134.042 166.5 131.708 165.883 129.642 164.65C127.608 163.383 126.008 161.667 124.842 159.5C123.675 157.3 123.092 154.8 123.092 152C123.092 149.2 123.675 146.7 124.842 144.5C126.008 142.3 127.608 140.583 129.642 139.35C131.708 138.083 134.042 137.45 136.642 137.45C139.242 137.45 141.558 138.083 143.592 139.35C145.658 140.583 147.275 142.3 148.442 144.5C149.642 146.7 150.242 149.2 150.242 152C150.242 154.8 149.642 157.3 148.442 159.5C147.275 161.667 145.658 163.383 143.592 164.65C141.558 165.883 139.242 166.5 136.642 166.5ZM137.542 164.75C139.508 164.75 141.242 164.283 142.742 163.35C144.275 162.417 145.458 161.1 146.292 159.4C147.125 157.667 147.542 155.633 147.542 153.3C147.542 150.433 147.025 147.95 145.992 145.85C144.958 143.717 143.558 142.067 141.792 140.9C140.058 139.733 138.092 139.15 135.892 139.15C133.892 139.15 132.125 139.617 130.592 140.55C129.058 141.483 127.858 142.817 126.992 144.55C126.125 146.25 125.692 148.267 125.692 150.6C125.692 153.467 126.225 155.967 127.292 158.1C128.358 160.2 129.775 161.833 131.542 163C133.342 164.167 135.342 164.75 137.542 164.75ZM164.473 166V164.75L167.923 164V140L164.473 139.25V138H173.773C177.006 138 179.606 138.617 181.573 139.85C183.573 141.05 184.573 142.95 184.573 145.55C184.573 147.117 184.089 148.517 183.123 149.75C182.189 150.95 180.889 151.9 179.223 152.6C177.556 153.3 175.623 153.65 173.423 153.65H170.573V164L174.473 164.75V166H164.473ZM170.573 139.65V152H173.923C176.189 152 178.039 151.433 179.473 150.3C180.939 149.167 181.673 147.7 181.673 145.9C181.673 143.7 180.939 142.117 179.473 141.15C178.006 140.15 176.056 139.65 173.623 139.65H170.573Z" fill="white"/>
<defs>
<filter id="filter0_d_4_4" x="6.5" y="10.5" width="211" height="211" filterUnits="userSpaceOnUse" color-interpolation-filters="sRGB">
<feFlood flood-opacity="0" result="BackgroundImageFix"/>
<feColorMatrix in="SourceAlpha" type="matrix" values="0 0 0 0 0 0 0 0 0 0 0 0 0 0 0 0 0 0 127 0" result="hardAlpha"/>
<feOffset dy="4"/>
<feGaussianBlur stdDeviation="2"/>
<feComposite in2="hardAlpha" operator="out"/>
<feColorMatrix type="matrix" values="0 0 0 0 0 0 0 0 0 0 0 0 0 0 0 0 0 0 0.25 0"/>
<feBlend mode="normal" in2="BackgroundImageFix" result="effect1_dropShadow_4_4"/>
<feBlend mode="normal" in="SourceGraphic" in2="effect1_dropShadow_4_4" result="shape"/>
</filter>
</defs>
</svg>
